<svg width="1280" height="1307" viewBox="0 0 1280 1307" fill="none" xmlns="http://www.w3.org/2000/svg">
<path d="M-658.993 1107.32C-682.087 1042.85 -674.478 968.708 -640.791 889.761C-607.102 810.809 -547.356 727.117 -466.302 643.639C-304.196 476.687 -57.0019 310.738 236.865 185.414C530.732 60.0909 815.543 -0.840886 1038.44 1.92174C1149.89 3.3031 1245.81 20.608 1319.64 53.7089C1393.46 86.8074 1445.13 135.668 1468.22 200.142C1491.32 264.617 1483.71 338.757 1450.02 417.704C1416.33 496.656 1356.59 580.348 1275.53 663.826C1113.43 830.778 866.234 996.727 572.367 1122.05C278.5 1247.37 -6.3114 1308.31 -229.209 1305.54C-340.66 1304.16 -436.582 1286.86 -510.409 1253.76C-584.23 1220.66 -635.898 1171.8 -658.993 1107.32Z" fill="#B09CFF" stroke="#B09CFF" stroke-width="2"/>
</svg>
