<svg width="1610" height="952" viewBox="0 0 1610 952" fill="none" xmlns="http://www.w3.org/2000/svg">
<path d="M1512.17 199.694C1525.33 226.684 1518.46 260.206 1494.28 297.889C1470.11 335.542 1428.79 377.135 1373.54 420.115C1263.03 506.067 1096.95 597.427 901.498 673.792C706.045 750.157 518.292 797.041 372.758 811.126C299.984 818.17 237.826 817.006 190.563 807.26C143.26 797.505 111.141 779.217 97.9861 752.227C84.8316 725.237 91.7002 691.715 115.882 654.031C140.045 616.379 181.363 574.786 236.623 531.805C347.131 445.853 513.207 354.494 708.66 278.129C904.113 201.764 1091.87 154.88 1237.4 140.794C1310.17 133.751 1372.33 134.915 1419.6 144.661C1466.9 154.415 1499.02 172.704 1512.17 199.694Z" stroke="#BCF369" stroke-width="2"/>
<path d="M956.216 155.54C974.784 170.878 983.439 194.414 983.024 224.02C982.609 253.626 973.121 289.196 955.542 328.423C920.387 406.87 852.959 499.751 761.568 588.437C670.177 677.123 572.191 744.758 487.681 782.434C445.422 801.273 406.585 812.598 373.659 815.346C340.733 818.094 313.836 812.26 295.268 796.922C276.701 781.583 268.046 758.047 268.461 728.442C268.876 698.836 278.364 663.266 295.943 624.039C331.098 545.591 398.525 452.71 489.916 364.024C581.308 275.339 679.294 207.703 763.804 170.027C806.063 151.188 844.9 139.864 877.826 137.115C910.752 134.367 937.649 140.201 956.216 155.54Z" stroke="#BCF369" stroke-width="2"/>
<path d="M1484.53 408.431C1512.68 424.369 1522.89 460.92 1516.16 507.608C1509.44 554.225 1485.85 610.612 1446.96 665.684C1408.06 720.756 1361.28 764.005 1317.12 789.428C1272.9 814.888 1231.64 822.301 1203.49 806.364C1175.34 790.426 1165.13 753.875 1171.86 707.187C1178.59 660.57 1202.17 604.183 1241.06 549.111C1279.96 494.039 1326.75 450.79 1370.9 425.367C1415.13 399.906 1456.38 392.493 1484.53 408.431Z" stroke="#BCF369" stroke-width="2"/>
</svg>
