<svg width="585" height="282" viewBox="0 0 585 282" fill="none" xmlns="http://www.w3.org/2000/svg">
<path d="M19.0445 209.883C16.6842 200.557 21.6401 189.576 33.2912 177.577C44.8967 165.625 62.9175 152.908 86.0363 140.193C132.26 114.77 198.659 89.4645 274.271 70.3267C349.883 51.1889 420.326 41.8595 473.078 42.2308C499.462 42.4166 521.363 45.029 537.257 50.0207C553.214 55.0321 562.797 62.3335 565.157 71.659C567.517 80.9845 562.562 91.9658 550.91 103.965C539.305 115.917 521.284 128.634 498.165 141.349C451.941 166.771 385.543 192.077 309.931 211.215C234.318 230.353 163.876 239.682 111.123 239.311C84.7394 239.125 62.8388 236.513 46.9447 231.521C30.9882 226.509 21.4049 219.208 19.0445 209.883Z" fill="#BCF369" stroke="#BCF369" stroke-width="2"/>
</svg>
